<svg xmlns="http://www.w3.org/2000/svg" xmlns:xlink="http://www.w3.org/1999/xlink" width="500" zoomAndPan="magnify" viewBox="0 0 375 118.499997" height="158" preserveAspectRatio="xMidYMid meet" version="1.0"><defs><g/></defs><g fill="#ffffff" fill-opacity="1"><g transform="translate(19.27083, 67.414612)"><g><path d="M 49.171875 -6.859375 C 49.171875 -4.984375 48.664062 -3.484375 47.65625 -2.359375 C 46.65625 -1.242188 45.398438 -0.503906 43.890625 -0.140625 C 42.378906 0.222656 40.867188 0.222656 39.359375 -0.140625 C 37.847656 -0.503906 36.585938 -1.242188 35.578125 -2.359375 C 34.578125 -3.484375 34.078125 -4.984375 34.078125 -6.859375 L 34.078125 -16.453125 L 15.765625 -16.453125 L 15.765625 -6.859375 C 15.765625 -4.984375 15.257812 -3.484375 14.25 -2.359375 C 13.25 -1.242188 11.992188 -0.503906 10.484375 -0.140625 C 8.984375 0.222656 7.476562 0.222656 5.96875 -0.140625 C 4.457031 -0.503906 3.195312 -1.242188 2.1875 -2.359375 C 1.1875 -3.484375 0.6875 -4.984375 0.6875 -6.859375 L 0.6875 -41.078125 C 0.6875 -42.953125 1.1875 -44.445312 2.1875 -45.5625 C 3.195312 -46.6875 4.457031 -47.441406 5.96875 -47.828125 C 7.476562 -48.222656 8.984375 -48.222656 10.484375 -47.828125 C 11.992188 -47.441406 13.25 -46.6875 14.25 -45.5625 C 15.257812 -44.445312 15.765625 -42.953125 15.765625 -41.078125 L 15.765625 -31.484375 L 34.078125 -31.484375 L 34.078125 -41.078125 C 34.078125 -42.953125 34.578125 -44.445312 35.578125 -45.5625 C 36.585938 -46.6875 37.847656 -47.441406 39.359375 -47.828125 C 40.867188 -48.222656 42.378906 -48.222656 43.890625 -47.828125 C 45.398438 -47.441406 46.65625 -46.6875 47.65625 -45.5625 C 48.664062 -44.445312 49.171875 -42.953125 49.171875 -41.078125 Z M 49.171875 -6.859375 "/></g></g></g><g fill="#ffffff" fill-opacity="1"><g transform="translate(73.316079, 67.414612)"><g><path d="M 0.6875 -15.765625 C 0.6875 -18.648438 1.394531 -21.269531 2.8125 -23.625 C 4.226562 -25.976562 6.113281 -27.863281 8.46875 -29.28125 C 10.820312 -30.695312 13.441406 -31.40625 16.328125 -31.40625 C 17.191406 -31.40625 18.378906 -31.414062 19.890625 -31.4375 C 21.398438 -31.46875 23 -31.484375 24.6875 -31.484375 C 26.375 -31.484375 27.972656 -31.484375 29.484375 -31.484375 C 30.992188 -31.484375 32.1875 -31.484375 33.0625 -31.484375 C 33.28125 -31.484375 33.460938 -31.550781 33.609375 -31.6875 C 34.015625 -32.09375 34.015625 -32.457031 33.609375 -32.78125 C 33.460938 -32.96875 33.28125 -33.0625 33.0625 -33.0625 L 8.921875 -33.0625 C 7.046875 -33.0625 5.546875 -33.5625 4.421875 -34.5625 C 3.304688 -35.570312 2.5625 -36.816406 2.1875 -38.296875 C 1.820312 -39.785156 1.820312 -41.269531 2.1875 -42.75 C 2.5625 -44.238281 3.304688 -45.484375 4.421875 -46.484375 C 5.546875 -47.492188 7.046875 -48 8.921875 -48 L 33.0625 -48 C 33.425781 -48 33.765625 -48 34.078125 -48 C 34.398438 -48 34.722656 -47.957031 35.046875 -47.875 C 36.734375 -47.6875 38.351562 -47.210938 39.90625 -46.453125 C 41.46875 -45.703125 42.890625 -44.6875 44.171875 -43.40625 C 45.671875 -41.945312 46.820312 -40.28125 47.625 -38.40625 C 48.425781 -36.53125 48.828125 -34.585938 48.828125 -32.578125 L 48.828125 -15.15625 C 48.828125 -12.414062 48.101562 -9.890625 46.65625 -7.578125 C 45.21875 -5.265625 43.320312 -3.421875 40.96875 -2.046875 C 38.613281 -0.679688 36.066406 0 33.328125 0 L 16.59375 0 C 13.71875 0 11.078125 -0.695312 8.671875 -2.09375 C 6.273438 -3.488281 4.34375 -5.375 2.875 -7.75 C 1.414062 -10.125 0.6875 -12.796875 0.6875 -15.765625 Z M 16.53125 -14.953125 L 33.0625 -14.953125 C 33.238281 -14.953125 33.421875 -15.039062 33.609375 -15.21875 C 34.015625 -15.539062 34.015625 -15.910156 33.609375 -16.328125 C 33.460938 -16.460938 33.28125 -16.53125 33.0625 -16.53125 L 16.53125 -16.53125 C 15.9375 -16.53125 15.640625 -16.253906 15.640625 -15.703125 C 15.640625 -15.203125 15.9375 -14.953125 16.53125 -14.953125 Z M 16.53125 -14.953125 "/></g></g></g><g fill="#ffffff" fill-opacity="1"><g transform="translate(127.018398, 67.414612)"><g><path d="M 0.6875 -32.578125 L 0.6875 -41.359375 C 0.6875 -43.234375 1.1875 -44.726562 2.1875 -45.84375 C 3.195312 -46.96875 4.441406 -47.710938 5.921875 -48.078125 C 7.410156 -48.441406 8.910156 -48.441406 10.421875 -48.078125 C 11.929688 -47.710938 13.1875 -46.96875 14.1875 -45.84375 C 15.195312 -44.726562 15.703125 -43.234375 15.703125 -41.359375 L 15.703125 -32.640625 C 15.703125 -32.003906 16 -31.6875 16.59375 -31.6875 L 33.265625 -31.6875 C 33.804688 -31.6875 34.078125 -31.984375 34.078125 -32.578125 L 34.078125 -41.359375 C 34.078125 -43.234375 34.578125 -44.726562 35.578125 -45.84375 C 36.585938 -46.96875 37.847656 -47.710938 39.359375 -48.078125 C 40.867188 -48.441406 42.363281 -48.441406 43.84375 -48.078125 C 45.332031 -47.710938 46.582031 -46.96875 47.59375 -45.84375 C 48.601562 -44.726562 49.109375 -43.234375 49.109375 -41.359375 L 49.109375 -15.5 C 49.109375 -12.9375 48.476562 -10.546875 47.21875 -8.328125 C 45.957031 -6.109375 44.285156 -4.269531 42.203125 -2.8125 C 40.128906 -1.351562 37.8125 -0.460938 35.25 -0.140625 C 34.925781 -0.0859375 34.601562 -0.0507812 34.28125 -0.03125 C 33.96875 -0.0078125 33.628906 0 33.265625 0 L 8.984375 0 C 7.109375 0 5.609375 -0.5 4.484375 -1.5 C 3.367188 -2.507812 2.628906 -3.753906 2.265625 -5.234375 C 1.898438 -6.722656 1.898438 -8.222656 2.265625 -9.734375 C 2.628906 -11.242188 3.367188 -12.5 4.484375 -13.5 C 5.609375 -14.507812 7.109375 -15.015625 8.984375 -15.015625 L 33.265625 -15.015625 C 33.441406 -15.015625 33.625 -15.109375 33.8125 -15.296875 C 34.21875 -15.609375 34.21875 -15.972656 33.8125 -16.390625 C 33.675781 -16.523438 33.492188 -16.59375 33.265625 -16.59375 C 32.347656 -16.59375 31.125 -16.59375 29.59375 -16.59375 C 28.0625 -16.59375 26.445312 -16.59375 24.75 -16.59375 C 23.0625 -16.59375 21.472656 -16.601562 19.984375 -16.625 C 18.503906 -16.65625 17.304688 -16.671875 16.390625 -16.671875 C 13.503906 -16.710938 10.875 -17.453125 8.5 -18.890625 C 6.125 -20.328125 4.226562 -22.242188 2.8125 -24.640625 C 1.394531 -27.046875 0.6875 -29.691406 0.6875 -32.578125 Z M 0.6875 -32.578125 "/></g></g></g><g fill="#ffffff" fill-opacity="1"><g transform="translate(180.995065, 67.414612)"><g><path d="M 0.6875 -15.765625 C 0.6875 -18.648438 1.394531 -21.269531 2.8125 -23.625 C 4.226562 -25.976562 6.113281 -27.863281 8.46875 -29.28125 C 10.820312 -30.695312 13.441406 -31.40625 16.328125 -31.40625 C 17.191406 -31.40625 18.378906 -31.414062 19.890625 -31.4375 C 21.398438 -31.46875 23 -31.484375 24.6875 -31.484375 C 26.375 -31.484375 27.972656 -31.484375 29.484375 -31.484375 C 30.992188 -31.484375 32.1875 -31.484375 33.0625 -31.484375 C 33.28125 -31.484375 33.460938 -31.550781 33.609375 -31.6875 C 34.015625 -32.09375 34.015625 -32.457031 33.609375 -32.78125 C 33.460938 -32.96875 33.28125 -33.0625 33.0625 -33.0625 L 8.921875 -33.0625 C 7.046875 -33.0625 5.546875 -33.5625 4.421875 -34.5625 C 3.304688 -35.570312 2.5625 -36.816406 2.1875 -38.296875 C 1.820312 -39.785156 1.820312 -41.269531 2.1875 -42.75 C 2.5625 -44.238281 3.304688 -45.484375 4.421875 -46.484375 C 5.546875 -47.492188 7.046875 -48 8.921875 -48 L 33.0625 -48 C 33.425781 -48 33.765625 -48 34.078125 -48 C 34.398438 -48 34.722656 -47.957031 35.046875 -47.875 C 36.734375 -47.6875 38.351562 -47.210938 39.90625 -46.453125 C 41.46875 -45.703125 42.890625 -44.6875 44.171875 -43.40625 C 45.671875 -41.945312 46.820312 -40.28125 47.625 -38.40625 C 48.425781 -36.53125 48.828125 -34.585938 48.828125 -32.578125 L 48.828125 -15.15625 C 48.828125 -12.414062 48.101562 -9.890625 46.65625 -7.578125 C 45.21875 -5.265625 43.320312 -3.421875 40.96875 -2.046875 C 38.613281 -0.679688 36.066406 0 33.328125 0 L 16.59375 0 C 13.71875 0 11.078125 -0.695312 8.671875 -2.09375 C 6.273438 -3.488281 4.34375 -5.375 2.875 -7.75 C 1.414062 -10.125 0.6875 -12.796875 0.6875 -15.765625 Z M 16.53125 -14.953125 L 33.0625 -14.953125 C 33.238281 -14.953125 33.421875 -15.039062 33.609375 -15.21875 C 34.015625 -15.539062 34.015625 -15.910156 33.609375 -16.328125 C 33.460938 -16.460938 33.28125 -16.53125 33.0625 -16.53125 L 16.53125 -16.53125 C 15.9375 -16.53125 15.640625 -16.253906 15.640625 -15.703125 C 15.640625 -15.203125 15.9375 -14.953125 16.53125 -14.953125 Z M 16.53125 -14.953125 "/></g></g></g><g fill="#ffffff" fill-opacity="1"><g transform="translate(234.697387, 67.414612)"><g><path d="M 33.1875 -14.875 C 33.414062 -14.832031 33.597656 -14.914062 33.734375 -15.125 C 33.878906 -15.332031 33.953125 -15.546875 33.953125 -15.765625 L 34.015625 -32.71875 C 34.015625 -36.914062 35.546875 -40.546875 38.609375 -43.609375 C 40.671875 -45.671875 43.046875 -47.046875 45.734375 -47.734375 C 48.429688 -48.421875 51.140625 -48.421875 53.859375 -47.734375 C 56.585938 -47.046875 58.976562 -45.671875 61.03125 -43.609375 C 62.351562 -42.335938 63.378906 -40.910156 64.109375 -39.328125 C 64.847656 -37.753906 65.332031 -36.117188 65.5625 -34.421875 C 65.601562 -34.109375 65.632812 -33.789062 65.65625 -33.46875 C 65.6875 -33.144531 65.703125 -32.800781 65.703125 -32.4375 L 65.703125 -7 C 65.703125 -5.125 65.195312 -3.625 64.1875 -2.5 C 63.1875 -1.382812 61.929688 -0.640625 60.421875 -0.265625 C 58.910156 0.0976562 57.398438 0.0976562 55.890625 -0.265625 C 54.378906 -0.640625 53.117188 -1.382812 52.109375 -2.5 C 51.109375 -3.625 50.609375 -5.125 50.609375 -7 L 50.609375 -32.4375 C 50.609375 -32.625 50.539062 -32.804688 50.40625 -32.984375 C 49.988281 -33.304688 49.625 -33.304688 49.3125 -32.984375 C 49.125 -32.804688 49.03125 -32.625 49.03125 -32.4375 L 49.03125 -15.5 C 49.03125 -12.613281 48.3125 -9.984375 46.875 -7.609375 C 45.4375 -5.234375 43.515625 -3.335938 41.109375 -1.921875 C 38.710938 -0.503906 36.070312 0.203125 33.1875 0.203125 C 30.3125 0.203125 27.671875 -0.503906 25.265625 -1.921875 C 22.867188 -3.335938 20.960938 -5.234375 19.546875 -7.609375 C 18.128906 -9.984375 17.394531 -12.613281 17.34375 -15.5 C 17.34375 -16.414062 17.332031 -17.625 17.3125 -19.125 C 17.289062 -20.632812 17.289062 -22.25 17.3125 -23.96875 C 17.332031 -25.6875 17.332031 -27.296875 17.3125 -28.796875 C 17.289062 -30.304688 17.28125 -31.519531 17.28125 -32.4375 C 17.28125 -32.625 17.210938 -32.804688 17.078125 -32.984375 C 16.710938 -33.347656 16.347656 -33.347656 15.984375 -32.984375 C 15.835938 -32.804688 15.765625 -32.625 15.765625 -32.4375 L 15.703125 -32.4375 L 15.703125 -7 C 15.703125 -5.125 15.195312 -3.625 14.1875 -2.5 C 13.1875 -1.382812 11.941406 -0.640625 10.453125 -0.265625 C 8.972656 0.0976562 7.476562 0.0976562 5.96875 -0.265625 C 4.457031 -0.640625 3.195312 -1.382812 2.1875 -2.5 C 1.1875 -3.625 0.6875 -5.125 0.6875 -7 L 0.6875 -32.4375 C 0.6875 -32.800781 0.695312 -33.144531 0.71875 -33.46875 C 0.738281 -33.789062 0.773438 -34.109375 0.828125 -34.421875 C 1.054688 -36.117188 1.546875 -37.753906 2.296875 -39.328125 C 3.046875 -40.910156 4.0625 -42.335938 5.34375 -43.609375 C 7.40625 -45.671875 9.785156 -47.046875 12.484375 -47.734375 C 15.179688 -48.421875 17.878906 -48.421875 20.578125 -47.734375 C 23.273438 -47.046875 25.648438 -45.671875 27.703125 -43.609375 C 30.816406 -40.597656 32.375 -36.96875 32.375 -32.71875 L 32.375 -15.765625 C 32.375 -15.546875 32.441406 -15.332031 32.578125 -15.125 C 32.710938 -14.914062 32.914062 -14.832031 33.1875 -14.875 Z M 33.1875 -14.875 "/></g></g></g><g fill="#ffffff" fill-opacity="1"><g transform="translate(305.271645, 67.414612)"><g><path d="M 7.6875 -32.921875 C 5.8125 -32.921875 4.3125 -33.421875 3.1875 -34.421875 C 2.070312 -35.429688 1.328125 -36.691406 0.953125 -38.203125 C 0.585938 -39.710938 0.585938 -41.21875 0.953125 -42.71875 C 1.328125 -44.226562 2.070312 -45.484375 3.1875 -46.484375 C 4.3125 -47.492188 5.8125 -48 7.6875 -48 L 41.625 -48 C 43.5 -48 44.992188 -47.492188 46.109375 -46.484375 C 47.234375 -45.484375 47.976562 -44.226562 48.34375 -42.71875 C 48.707031 -41.21875 48.707031 -39.710938 48.34375 -38.203125 C 47.976562 -36.691406 47.234375 -35.429688 46.109375 -34.421875 C 44.992188 -33.421875 43.5 -32.921875 41.625 -32.921875 L 32.15625 -32.921875 L 32.15625 -15.015625 L 41.625 -15.015625 C 43.5 -15.015625 44.992188 -14.507812 46.109375 -13.5 C 47.234375 -12.5 47.976562 -11.253906 48.34375 -9.765625 C 48.707031 -8.285156 48.707031 -6.789062 48.34375 -5.28125 C 47.976562 -3.769531 47.234375 -2.507812 46.109375 -1.5 C 44.992188 -0.5 43.5 0 41.625 0 L 7.6875 0 C 5.8125 0 4.3125 -0.5 3.1875 -1.5 C 2.070312 -2.507812 1.328125 -3.753906 0.953125 -5.234375 C 0.585938 -6.722656 0.585938 -8.222656 0.953125 -9.734375 C 1.328125 -11.242188 2.070312 -12.5 3.1875 -13.5 C 4.3125 -14.507812 5.8125 -15.015625 7.6875 -15.015625 L 17.140625 -15.015625 L 17.140625 -32.921875 Z M 7.6875 -32.921875 "/></g></g></g><g fill="#ffffff" fill-opacity="1"><g transform="translate(242.979723, 104.214751)"><g><path d="M 1.96875 -22.859375 C 1.96875 -24.085938 2.3125 -25.113281 3 -25.9375 C 3.695312 -26.769531 4.597656 -27.390625 5.703125 -27.796875 C 6.816406 -28.210938 7.992188 -28.421875 9.234375 -28.421875 C 10.484375 -28.421875 11.660156 -28.21875 12.765625 -27.8125 C 13.878906 -27.414062 14.789062 -26.8125 15.5 -26 C 16.207031 -25.1875 16.5625 -24.175781 16.5625 -22.96875 L 16.5625 -5.578125 C 16.5625 -4.554688 16.859375 -3.695312 17.453125 -3 C 18.054688 -2.3125 18.835938 -1.789062 19.796875 -1.4375 C 20.765625 -1.09375 21.789062 -0.910156 22.875 -0.890625 C 23.957031 -0.878906 24.972656 -1.039062 25.921875 -1.375 C 26.867188 -1.71875 27.648438 -2.234375 28.265625 -2.921875 C 28.878906 -3.617188 29.1875 -4.476562 29.1875 -5.5 L 29.1875 -27.828125 C 29.1875 -28.148438 29.351562 -28.3125 29.6875 -28.3125 C 30.019531 -28.3125 30.1875 -28.148438 30.1875 -27.828125 L 30.1875 -5.5 C 30.1875 -4.269531 29.835938 -3.238281 29.140625 -2.40625 C 28.453125 -1.570312 27.550781 -0.945312 26.4375 -0.53125 C 25.332031 -0.125 24.15625 0.078125 22.90625 0.078125 C 21.664062 0.078125 20.488281 -0.132812 19.375 -0.5625 C 18.269531 -0.988281 17.367188 -1.625 16.671875 -2.46875 C 15.984375 -3.3125 15.640625 -4.359375 15.640625 -5.609375 L 15.640625 -22.765625 C 15.640625 -23.816406 15.332031 -24.679688 14.71875 -25.359375 C 14.101562 -26.035156 13.3125 -26.546875 12.34375 -26.890625 C 11.382812 -27.242188 10.367188 -27.425781 9.296875 -27.4375 C 8.234375 -27.457031 7.21875 -27.300781 6.25 -26.96875 C 5.289062 -26.632812 4.503906 -26.125 3.890625 -25.4375 C 3.273438 -24.757812 2.96875 -23.898438 2.96875 -22.859375 L 2.96875 -0.484375 C 2.96875 -0.128906 2.800781 0.046875 2.46875 0.046875 C 2.132812 0.046875 1.96875 -0.128906 1.96875 -0.484375 Z M 1.96875 -22.859375 "/></g></g></g><g fill="#ffffff" fill-opacity="1"><g transform="translate(276.977218, 104.214751)"><g><path d="M 24.296875 0 L 7.625 0 C 6.65625 0 5.734375 -0.265625 4.859375 -0.796875 C 3.992188 -1.335938 3.296875 -2.035156 2.765625 -2.890625 C 2.234375 -3.742188 1.96875 -4.648438 1.96875 -5.609375 L 1.96875 -22.375 C 1.96875 -23.363281 2.238281 -24.285156 2.78125 -25.140625 C 3.332031 -25.992188 4.039062 -26.691406 4.90625 -27.234375 C 5.78125 -27.785156 6.695312 -28.0625 7.65625 -28.0625 L 24.25 -28.0625 C 25.21875 -28.0625 26.132812 -27.785156 27 -27.234375 C 27.875 -26.691406 28.582031 -25.992188 29.125 -25.140625 C 29.675781 -24.285156 29.953125 -23.363281 29.953125 -22.375 L 29.953125 -5.609375 C 29.953125 -4.648438 29.679688 -3.742188 29.140625 -2.890625 C 28.609375 -2.035156 27.914062 -1.335938 27.0625 -0.796875 C 26.207031 -0.265625 25.285156 0 24.296875 0 Z M 24.21875 -27.0625 L 7.703125 -27.0625 C 6.898438 -27.0625 6.132812 -26.832031 5.40625 -26.375 C 4.6875 -25.925781 4.097656 -25.335938 3.640625 -24.609375 C 3.191406 -23.890625 2.96875 -23.128906 2.96875 -22.328125 L 2.96875 -5.609375 C 2.96875 -4.804688 3.191406 -4.054688 3.640625 -3.359375 C 4.097656 -2.671875 4.679688 -2.101562 5.390625 -1.65625 C 6.097656 -1.21875 6.851562 -1 7.65625 -1 L 24.25 -1 C 25.050781 -1 25.8125 -1.21875 26.53125 -1.65625 C 27.257812 -2.101562 27.84375 -2.671875 28.28125 -3.359375 C 28.726562 -4.054688 28.953125 -4.804688 28.953125 -5.609375 L 28.953125 -22.328125 C 28.953125 -23.128906 28.722656 -23.890625 28.265625 -24.609375 C 27.804688 -25.335938 27.222656 -25.925781 26.515625 -26.375 C 25.804688 -26.832031 25.039062 -27.0625 24.21875 -27.0625 Z M 24.21875 -27.0625 "/></g></g></g><g fill="#ffffff" fill-opacity="1"><g transform="translate(310.734164, 104.214751)"><g><path d="M 15.875 -5.453125 C 15.875 -4.222656 15.539062 -3.1875 14.875 -2.34375 C 14.207031 -1.5 13.34375 -0.867188 12.28125 -0.453125 C 11.226562 -0.046875 10.113281 0.15625 8.9375 0.15625 C 7.757812 0.15625 6.644531 -0.046875 5.59375 -0.453125 C 4.539062 -0.867188 3.675781 -1.488281 3 -2.3125 C 2.332031 -3.144531 2 -4.175781 2 -5.40625 L 2 -27.828125 C 2 -28.148438 2.160156 -28.3125 2.484375 -28.3125 C 2.828125 -28.3125 3 -28.148438 3 -27.828125 L 3 -5.40625 C 3 -4.394531 3.285156 -3.546875 3.859375 -2.859375 C 4.441406 -2.179688 5.179688 -1.675781 6.078125 -1.34375 C 6.972656 -1.007812 7.925781 -0.84375 8.9375 -0.84375 C 9.957031 -0.84375 10.914062 -1.015625 11.8125 -1.359375 C 12.707031 -1.710938 13.441406 -2.226562 14.015625 -2.90625 C 14.585938 -3.582031 14.875 -4.429688 14.875 -5.453125 L 14.875 -23.328125 C 14.875 -24.453125 15.164062 -25.378906 15.75 -26.109375 C 16.34375 -26.847656 17.097656 -27.40625 18.015625 -27.78125 C 18.941406 -28.15625 19.925781 -28.34375 20.96875 -28.34375 C 22.007812 -28.34375 22.988281 -28.160156 23.90625 -27.796875 C 24.832031 -27.441406 25.585938 -26.894531 26.171875 -26.15625 C 26.765625 -25.425781 27.0625 -24.5 27.0625 -23.375 L 27.0625 -5.5 C 27.0625 -4.476562 27.347656 -3.625 27.921875 -2.9375 C 28.492188 -2.257812 29.234375 -1.742188 30.140625 -1.390625 C 31.054688 -1.046875 32.019531 -0.867188 33.03125 -0.859375 C 34.050781 -0.847656 35.015625 -1.007812 35.921875 -1.34375 C 36.828125 -1.675781 37.566406 -2.179688 38.140625 -2.859375 C 38.722656 -3.546875 39.015625 -4.394531 39.015625 -5.40625 L 39.015625 -27.828125 C 39.015625 -28.148438 39.175781 -28.3125 39.5 -28.3125 C 39.84375 -28.3125 40.015625 -28.148438 40.015625 -27.828125 L 40.015625 -5.40625 C 40.015625 -4.175781 39.679688 -3.144531 39.015625 -2.3125 C 38.347656 -1.488281 37.476562 -0.875 36.40625 -0.46875 C 35.332031 -0.0703125 34.207031 0.125 33.03125 0.125 C 31.851562 0.125 30.726562 -0.0820312 29.65625 -0.5 C 28.59375 -0.914062 27.726562 -1.546875 27.0625 -2.390625 C 26.394531 -3.234375 26.0625 -4.269531 26.0625 -5.5 L 26.0625 -23.375 C 26.0625 -24.28125 25.8125 -25.023438 25.3125 -25.609375 C 24.820312 -26.203125 24.195312 -26.644531 23.4375 -26.9375 C 22.675781 -27.238281 21.859375 -27.378906 20.984375 -27.359375 C 20.117188 -27.347656 19.296875 -27.1875 18.515625 -26.875 C 17.742188 -26.570312 17.109375 -26.125 16.609375 -25.53125 C 16.117188 -24.945312 15.875 -24.203125 15.875 -23.296875 Z M 15.875 -5.453125 "/></g></g></g></svg>